<?xml version='1.0' encoding='utf-8'?>
<svg xmlns:xlink="http://www.w3.org/1999/xlink" xmlns="http://www.w3.org/2000/svg" width="3100.6909" height="1660" viewBox="0 0 820.39116 439.20832" version="1.1" id="svg5"> <metadata><?xpacket begin="﻿" id="W5M0MpCehiHzreSzNTczkc9d"?> <?xpacket end="w"?></metadata> <defs id="defs2"> <color-profile name="sRGB-IEC61966-2.1" xlink:href="file:///System/Library/ColorSync/Profiles/sRGB%20Profile.icc" id="color-profile15129"/> </defs> <g id="layer1" transform="translate(75.768975,-195.34602)"> <g id="g15110"> <g id="g9875" transform="matrix(2.5304878,0,0,2.5304878,105.51071,-196.53744)"> <path style="fill:#e1e7ea;stroke-width:0.352778" d="M -71.638237,241.64812 V 154.86479 H 90.463143 252.56452 v 86.78333 86.78334 H 90.463143 -71.638237 Z" id="path9883"/> <path style="fill:#a10826;stroke-width:0.352778" d="m -60.702126,314.32035 v -1.41111 h 18.520832 18.520832 v -14.6352 -14.6352 l -2.046785,-1.03321 c -3.106903,-1.56837 -5.453665,-3.60508 -7.223601,-6.26925 -2.103659,-3.16649 -2.924668,-5.74718 -3.443116,-10.82281 -0.701732,-6.86998 0.335293,-14.50804 3.008657,-22.15979 1.024583,-2.93258 1.455458,-3.54117 2.406004,-3.39837 1.459212,0.21921 1.520281,1.09736 0.331188,4.76234 -3.14179,9.68351 -3.877444,16.67078 -2.499618,23.74149 0.906456,4.65175 4.133483,8.97595 8.419634,11.28227 2.094385,1.12696 2.529325,1.22811 5.28097,1.22811 2.751646,0 3.186585,-0.10115 5.28097,-1.22811 9.6120654,-5.17212 11.6649074,-17.31708 5.9200169,-35.02376 -1.1890939,-3.66498 -1.1280245,-4.54313 0.3311877,-4.76234 0.9505456,-0.1428 1.3814213,0.46579 2.4060043,3.39837 2.673364,7.65175 3.7103895,15.28981 3.0086581,22.15979 -0.5184493,5.07563 -1.3394584,7.65632 -3.443118,10.82281 -1.7699354,2.66417 -4.116698,4.70088 -7.223601,6.26925 l -2.046785,1.03321 v 14.6352 14.6352 h 9.1722221 9.1722217 v -51.44153 c 0,-44.68996 0.06937,-51.66986 0.5285528,-53.18125 0.809064,-2.66303 3.5824793,-6.43476 6.0782055,-8.26611 l 2.1634029,-1.5875 0.02466,-15.08125 0.02462,-15.08125 h 1.411111 1.411111 v 15.98385 15.98385 l -2.144018,1.3875 c -2.422796,1.56791 -4.1107706,3.46544 -5.5291066,6.21553 -0.9699307,1.88066 -0.9699307,1.88066 -1.0615153,54.88552 l -0.091588,53.00486 h -11.99105 -11.9910541 v -16.05139 -16.05139 h -1.411111 -1.411111 v 16.05139 16.05139 h -19.93194 -19.931943 z M 36.932508,262.7266 c -0.09158,-53.00486 -0.09158,-53.00486 -1.061515,-54.88552 -1.418336,-2.75009 -3.10631,-4.64762 -5.529107,-6.21553 l -2.144017,-1.3875 V 184.2542 168.27035 h 1.411111 1.411111 l 0.02462,15.08125 0.02466,15.08125 2.163402,1.5875 c 2.495727,1.83135 5.269142,5.60308 6.078206,8.26611 0.459182,1.51139 0.528553,8.49129 0.528553,53.18125 v 51.44153 H 140.3812 240.92286 v 1.41111 1.41111 H 138.97347 37.024097 Z M 8.7950919,288.92035 v -23.98889 h 12.6999991 12.7 v 23.98889 23.98889 h -12.7 H 8.7950919 Z M -23.484073,277.58842 c -4.360912,-2.26599 -6.800991,-5.81011 -7.439032,-10.80488 l -0.236586,-1.85208 h 11.732562 11.732563 l -0.2365869,1.85208 c -0.6380409,4.99477 -3.0781201,8.53889 -7.4390321,10.80488 -1.619281,0.84141 -2.5726,1.09986 -4.056944,1.09986 -1.484344,0 -2.437662,-0.25845 -4.056944,-1.09986 z" id="path9881"/> <path style="fill:#9f001e;stroke-width:0.352778" d="m -60.702126,314.32035 v -1.41111 h 18.520832 18.520832 v -14.6352 -14.6352 l -2.046785,-1.03321 c -3.106903,-1.56837 -5.453665,-3.60508 -7.223601,-6.26925 -2.103659,-3.16649 -2.924668,-5.74718 -3.443116,-10.82281 -0.701732,-6.86998 0.335293,-14.50804 3.008657,-22.15979 1.024583,-2.93258 1.455458,-3.54117 2.406004,-3.39837 1.459212,0.21921 1.520281,1.09736 0.331188,4.76234 -3.14179,9.68351 -3.877444,16.67078 -2.499618,23.74149 0.906456,4.65175 4.133483,8.97595 8.419634,11.28227 2.094385,1.12696 2.529325,1.22811 5.28097,1.22811 2.751646,0 3.186585,-0.10115 5.28097,-1.22811 9.6120654,-5.17212 11.6649074,-17.31708 5.9200169,-35.02376 -1.1890939,-3.66498 -1.1280245,-4.54313 0.3311877,-4.76234 0.9505456,-0.1428 1.3814213,0.46579 2.4060043,3.39837 2.673364,7.65175 3.7103895,15.28981 3.0086581,22.15979 -0.5184493,5.07563 -1.3394584,7.65632 -3.443118,10.82281 -1.7699354,2.66417 -4.116698,4.70088 -7.223601,6.26925 l -2.046785,1.03321 v 14.6352 14.6352 h 9.1722221 9.1722217 v -51.44153 c 0,-44.68996 0.06937,-51.66986 0.5285528,-53.18125 0.809064,-2.66303 3.5824793,-6.43476 6.0782055,-8.26611 l 2.1634029,-1.5875 0.02466,-15.08125 0.02462,-15.08125 h 1.411111 1.411111 v 15.98385 15.98385 l -2.144018,1.3875 c -2.422796,1.56791 -4.1107706,3.46544 -5.5291066,6.21553 -0.9699307,1.88066 -0.9699307,1.88066 -1.0615153,54.88552 l -0.091588,53.00486 h -11.99105 -11.9910541 v -16.05139 -16.05139 h -1.411111 -1.411111 v 16.05139 16.05139 h -19.93194 -19.931943 z M 36.932508,262.7266 c -0.09158,-53.00486 -0.09158,-53.00486 -1.061515,-54.88552 -1.418336,-2.75009 -3.10631,-4.64762 -5.529107,-6.21553 l -2.144017,-1.3875 V 184.2542 168.27035 h 1.411111 1.411111 l 0.02462,15.08125 0.02466,15.08125 2.163402,1.5875 c 2.495727,1.83135 5.269142,5.60308 6.078206,8.26611 0.459182,1.51139 0.528553,8.49129 0.528553,53.18125 v 51.44153 H 140.3812 240.92286 v 1.41111 1.41111 H 138.97347 37.024097 Z M 8.7950919,288.92035 v -23.98889 h 12.6999991 12.7 v 23.98889 23.98889 h -12.7 H 8.7950919 Z M -22.954906,277.74607 c -3.27878,-1.84488 -4.210798,-2.60731 -5.406559,-4.42281 -1.618058,-2.45667 -2.245036,-4.04105 -2.543055,-6.42631 l -0.245572,-1.96549 h 11.722963 11.7229639 l -0.2534144,2.02825 c -0.3657247,2.92715 -1.9439218,6.14198 -3.9845015,8.11653 -3.665276,3.54668 -7.711242,4.52754 -11.012825,2.66983 z" id="path9879"/> <path style="fill:#000000;stroke-width:0.352778" d="m -60.702126,314.32035 v -1.41111 h 18.520832 18.520832 v -14.6352 -14.6352 l -2.046785,-1.03321 c -3.106903,-1.56837 -5.453665,-3.60508 -7.223601,-6.26925 -2.103659,-3.16649 -2.924668,-5.74718 -3.443116,-10.82281 -0.701732,-6.86998 0.335293,-14.50804 3.008657,-22.15979 1.024583,-2.93258 1.455458,-3.54117 2.406004,-3.39837 1.459212,0.21921 1.520281,1.09736 0.331188,4.76234 -3.14179,9.68351 -3.877444,16.67078 -2.499618,23.74149 0.906456,4.65175 4.133483,8.97595 8.419634,11.28227 2.094385,1.12696 2.529325,1.22811 5.28097,1.22811 2.751646,0 3.186585,-0.10115 5.28097,-1.22811 9.6120654,-5.17212 11.6649074,-17.31708 5.9200169,-35.02376 -1.1890939,-3.66498 -1.1280245,-4.54313 0.3311877,-4.76234 0.9505456,-0.1428 1.3814213,0.46579 2.4060043,3.39837 2.673364,7.65175 3.7103895,15.28981 3.0086581,22.15979 -0.5184493,5.07563 -1.3394584,7.65632 -3.443118,10.82281 -1.7699354,2.66417 -4.116698,4.70088 -7.223601,6.26925 l -2.046785,1.03321 v 14.6352 14.6352 h 9.1722221 9.1722217 v -51.44153 c 0,-44.68996 0.06937,-51.66986 0.5285528,-53.18125 0.809064,-2.66303 3.5824793,-6.43476 6.0782055,-8.26611 l 2.1634029,-1.5875 0.02466,-15.08125 0.02462,-15.08125 h 1.411111 1.411111 v 15.98385 15.98385 l -2.144018,1.3875 c -2.422796,1.56791 -4.1107706,3.46544 -5.5291066,6.21553 -0.9699307,1.88066 -0.9699307,1.88066 -1.0615153,54.88552 l -0.091588,53.00486 h -11.99105 -11.9910541 v -16.05139 -16.05139 h -1.411111 -1.411111 v 16.05139 16.05139 h -19.93194 -19.931943 z M 36.932508,262.7266 c -0.09158,-53.00486 -0.09158,-53.00486 -1.061515,-54.88552 -1.418336,-2.75009 -3.10631,-4.64762 -5.529107,-6.21553 l -2.144017,-1.3875 V 184.2542 168.27035 h 1.411111 1.411111 l 0.02462,15.08125 0.02466,15.08125 2.163402,1.5875 c 2.495727,1.83135 5.269142,5.60308 6.078206,8.26611 0.459182,1.51139 0.528553,8.49129 0.528553,53.18125 v 51.44153 H 140.3812 240.92286 v 1.41111 1.41111 H 138.97347 37.024097 Z" id="path9877"/> </g> <path style="fill:#ffffff;stroke-width:1.10395" d="M 13.247421,1131.5505 V 603.86159 H 364.48716 715.72688 l -0.73506,223.73361 c -0.40428,123.05348 -0.73506,327.2293 -0.73506,453.7242 v 229.9905 h -86.66021 -86.66021 v -139.5535 -139.5535 l 15.17934,-7.9396 c 23.66048,-12.3756 35.39605,-20.7263 51.14678,-36.3948 20.52417,-20.4169 35.1533,-43.8443 43.49899,-69.6601 13.8077,-42.7115 16.75918,-114.9924 7.15434,-175.20755 -7.64982,-47.95866 -28.22661,-115.8264 -38.30758,-126.34867 -2.45191,-2.55925 -3.82605,-3.03977 -8.69278,-3.03977 -4.60817,0 -6.46933,0.57962 -9.17704,2.85801 -3.09976,2.60828 -3.39656,3.43844 -3.39656,9.50023 0,7.83645 1.2699,13.09181 10.08492,41.7354 14.3872,46.74989 22.90921,87.06751 26.42452,125.01449 1.7114,18.47436 0.76621,61.73836 -1.65833,75.90476 -3.58309,20.9359 -10.74986,43.6754 -18.68193,59.276 -9.1794,18.0539 -27.48384,39.8191 -43.87462,52.1699 -11.02284,8.306 -28.51162,18.2061 -38.78093,21.9532 -7.80973,2.8497 -8.71287,2.9295 -32.86929,2.9063 -28.47068,-0.027 -29.90486,-0.3564 -49.95336,-11.4629 -40.53386,-22.455 -70.74201,-62.6079 -79.77206,-106.0336 -12.67801,-60.9688 -6.91897,-128.38536 17.87432,-209.24061 12.72286,-41.49151 12.77972,-41.7137 12.9154,-50.46921 0.11459,-7.39412 -0.1873,-8.83915 -2.28627,-10.94325 -3.25612,-3.26409 -13.45746,-4.23218 -17.39694,-1.65093 -8.46385,5.54573 -28.8439,68.45401 -37.59708,116.05307 -6.5485,35.61029 -9.37248,77.21513 -7.36133,108.45293 3.77604,58.6508 12.55335,90.0297 34.21526,122.3196 18.1416,27.0424 38.32576,44.2679 72.69325,62.0376 l 15.8226,8.1812 v 139.5676 139.5677 H 280.95571 103.77146 v 13.7994 13.7994 h 191.53562 191.53563 v -153.4493 -153.4493 h 12.69544 12.69544 v 153.4493 153.4493 h 115.20525 115.20525 l 0.7126,-400.4585 c 0.39193,-220.25216 1.02917,-430.63776 1.4161,-467.52355 l 0.7035,-67.06506 h 145.3852 145.38521 l 0.7333,100.18361 c 0.4033,55.10099 0.7337,180.91009 0.7343,279.57578 6e-4,98.66572 0.3316,263.96862 0.7356,367.33992 l 0.7345,187.9478 h 584.3595 584.3595 v 60.1654 60.1653 H 1110.5754 13.247421 Z M 1012.3237,1282.2399 V 1052.066 H 890.33706 768.35039 v 230.1739 230.1739 h 121.98667 121.98664 z m -494.33325,-99.8271 c 9.58825,-2.4522 24.67228,-9.7374 35.71615,-17.2498 34.70214,-23.6056 52.63479,-56.5791 57.45544,-105.6453 l 0.73211,-7.4517 H 499.0886 386.28305 l 0.59168,3.5878 c 0.32544,1.9733 1.11916,7.8105 1.76384,12.9715 5.97113,47.8014 27.50446,80.5397 68.39744,103.9883 6.59058,3.7792 17.51609,8.3215 24.61521,10.234 8.62252,2.3229 26.38793,2.1103 36.33923,-0.4348 z" id="path13390" transform="matrix(0.26458333,0,0,0.26458333,-75.768975,195.34602)"/> <path style="fill:#ffffff;stroke-width:1.10395" d="m 1066.4174,1064.3714 c 0,-245.81619 -0.3192,-449.99206 -0.7093,-453.72416 l -0.7092,-6.78565 h 571.4522 571.4523 v 453.72411 453.7242 h -570.743 -570.743 z" id="path13468" transform="matrix(0.26458333,0,0,0.26458333,-75.768975,195.34602)"/> <path style="fill:#ffffff;stroke-width:1.10395" d="M 13.247421,301.93079 V 0 H 1110.5754 2207.9034 v 301.93079 301.9308 h -571.295 -571.295 l -0.021,-24.01095 c -0.028,-31.50937 -1.7582,-62.17589 -3.94,-69.82495 -4.1179,-14.43696 -19.834,-40.21847 -34.5078,-56.60827 -9.9279,-11.08895 -17.9582,-18.20436 -32.52936,-28.82326 L 982.51702,415.9962 V 272.0273 128.0584 h -14.35137 -14.35137 l 0.0609,153.1733 0.0609,153.1733 16.22232,10.48754 c 12.73708,8.23437 18.8526,13.09649 28.46499,22.63101 16.68431,16.54919 30.41141,37.99879 33.44021,52.25299 1.55,7.29481 3.2833,37.20904 3.7046,63.93793 l 0.3175,20.14712 H 890.50987 744.93393 l 0.72503,-25.66688 c 0.9132,-32.32838 2.47055,-53.94227 4.41888,-61.32803 2.66896,-10.11753 14.01208,-28.91483 25.64432,-42.49658 8.84874,-10.33174 18.15619,-18.03442 35.9583,-29.75846 l 15.17937,-9.99675 V 281.33664 128.0584 h -13.79939 -13.7994 l -10e-4,99.07966 c -8e-4,54.49382 -0.32844,119.47304 -0.72807,144.39827 l -0.72662,45.31861 -12.2069,8.77502 c -32.76336,23.55221 -62.62516,64.36154 -66.91586,91.44765 -0.66249,4.18215 -1.66615,25.29522 -2.23035,46.91795 -0.5642,21.62273 -1.0405,39.43825 -1.05844,39.59004 -0.0183,0.15179 -158.00848,0.27599 -351.08963,0.27599 H 13.247421 Z" id="path13507" transform="matrix(0.26458333,0,0,0.26458333,-75.768975,195.34602)"/> <path style="fill:#ffffff;stroke-width:3.12245" d="m 2210.6925,1598.6928 v -59.3264 h 390.3058 390.3059 v -14.0511 -14.051 H 2600.9983 2210.6925 V 755.63217 0 h 444.9486 444.9487 v 829.00967 829.00963 h -444.9487 -444.9486 z" id="path13617" transform="matrix(0.26458333,0,0,0.26458333,-75.768975,195.34602)"/> <path style="fill:#ffffff;stroke-width:0.390306" d="m 1987.1448,1659.6781 220.8155,-0.098 v -60.4971 -60.4971 h 167.2461 c 111.2372,0 167.246,0.1308 167.246,0.3904 0,0.2595 -55.5535,0.3903 -165.8799,0.3903 h -165.88 v 59.3264 59.3265 h 165.88 165.8799 v 0.9758 0.9758 l -388.0616,-0.097 c -233.7454,-0.058 -300.2523,-0.1363 -167.246,-0.1955 z" id="path13844" transform="matrix(0.26458333,0,0,0.26458333,-75.768975,195.34602)"/> <path style="fill:#ffffff;stroke-width:0.390306" d="m 2207.9603,1367.4366 v -143.8277 h 1.3661 1.3661 v 143.8277 143.8277 h -1.3661 -1.3661 z" id="path13883" transform="matrix(0.26458333,0,0,0.26458333,-75.768975,195.34602)"/> <path style="fill:#ffffff;stroke-width:0.390306" d="m 2207.9603,1114.1281 v -109.4808 h 1.3661 1.3661 v 109.4808 109.4808 h -1.3661 -1.3661 z" id="path13922" transform="matrix(0.26458333,0,0,0.26458333,-75.768975,195.34602)"/> <path style="fill:#ffffff;stroke-width:0.390306" d="M 2207.9603,874.67546 V 744.7036 h 1.3661 1.3661 v 129.97186 129.97184 h -1.3661 -1.3661 z" id="path13961" transform="matrix(0.26458333,0,0,0.26458333,-75.768975,195.34602)"/> <path style="fill:#ffffff;stroke-width:0.390306" d="M 2207.9603,605.75471 V 466.80582 h 1.3661 1.3661 V 605.75471 744.7036 h -1.3661 -1.3661 z" id="path14000" transform="matrix(0.26458333,0,0,0.26458333,-75.768975,195.34602)"/> <path style="fill:#ffffff;stroke-width:0.390306" d="M 2207.9603,351.47044 V 236.13505 h 1.3661 1.3661 v 115.33539 115.33538 h -1.3661 -1.3661 z" id="path14039" transform="matrix(0.26458333,0,0,0.26458333,-75.768975,195.34602)"/> <path style="fill:#ffffff;stroke-width:0.390306" d="M 2207.9603,118.06753 V 0 h 1.3661 1.3661 v 118.06753 118.06752 h -1.3661 -1.3661 z" id="path14078" transform="matrix(0.26458333,0,0,0.26458333,-75.768975,195.34602)"/> <path style="fill:#ffffff;stroke-width:0.390306" d="M 0,135.63129 V 0 H 6.6351998 13.2704 V 135.63129 271.26258 H 6.6351998 0 Z" id="path14191" transform="matrix(0.26458333,0,0,0.26458333,-75.768975,195.34602)"/> <path style="fill:#ffffff;stroke-width:1.56122" d="M 0,965.61672 V 271.65289 H 6.2448939 12.489788 V 965.61672 1659.5806 H 6.2448939 0 Z" id="path14859" transform="matrix(0.26458333,0,0,0.26458333,-75.768975,195.34602)"/> </g> </g> </svg>